# Retro Tank Turret + Cannon (rectangular, con orificio real)
# Cañón mantiene su forma rectangular original; se le agrega un orificio hueco rectangular

o Turret
v -0.8 0.8 -0.8
v 0.8 0.8 -0.8
v 0.8 0.8 0.8
v -0.8 0.8 0.8
v -0.6 1.3 -0.6
v 0.6 1.3 -0.6
v 0.6 1.3 0.6
v -0.6 1.3 0.6
f 1 2 3 4
f 5 6 7 8
f 1 5 8 4
f 2 6 5 1
f 3 7 6 2
f 4 8 7 3

o Cannon
v -0.1500 1.1000 0.6000
v 0.1500 1.1000 0.6000
v 0.1500 1.2000 0.6000
v -0.1500 1.2000 0.6000
v -0.1500 1.1000 3.0000
v 0.1500 1.1000 3.0000
v 0.1500 1.2000 3.0000
v -0.1500 1.2000 3.0000
v -0.1200 1.1300 3.0000
v 0.1200 1.1300 3.0000
v 0.1200 1.1700 3.0000
v -0.1200 1.1700 3.0000
v -0.1200 1.1300 1.6000
v 0.1200 1.1300 1.6000
v 0.1200 1.1700 1.6000
v -0.1200 1.1700 1.6000

f 9 10 14 13
f 10 11 15 14
f 11 12 16 15
f 12 9 13 16
f 9 10 11 12
f 13 14 18 17
f 14 15 19 18
f 15 16 20 19
f 16 13 17 20
f 21 22 18 17
f 22 23 19 18
f 23 24 20 19
f 24 21 17 20
f 24 23 22 21
